<?xml version="1.0" encoding="utf-8"?>
<!-- Generator: Adobe Illustrator 25.2.3, SVG Export Plug-In . SVG Version: 6.00 Build 0)  -->
<svg version="1.1" id="Layer_1" xmlns="http://www.w3.org/2000/svg" xmlns:xlink="http://www.w3.org/1999/xlink" x="0px" y="0px"
	 viewBox="0 0 36 31" style="enable-background:new 0 0 36 31;" xml:space="preserve">
<style type="text/css">
	.st0{fill:url(#SVGID_1_);}
	.st1{fill-rule:evenodd;clip-rule:evenodd;fill:#FFFFFF;fill-opacity:0.4077;}
	.st2{fill-rule:evenodd;clip-rule:evenodd;fill:#0487FF;}
	.st3{fill:url(#SVGID_2_);}
	.st4{fill:url(#SVGID_3_);}
	.st5{fill:url(#SVGID_4_);}
	.st6{fill:url(#SVGID_5_);}
</style>
<linearGradient id="SVGID_1_" gradientUnits="userSpaceOnUse" x1="7.1967" y1="36.133" x2="25.2571" y2="4.6849" gradientTransform="matrix(1 0 0 -1 0 32)">
	<stop  offset="0" style="stop-color:#B4DBFF"/>
	<stop  offset="1" style="stop-color:#369FFF"/>
</linearGradient>
<path class="st0" d="M0,0.6C0,0.3,0.3,0,0.6,0h31.9c0.3,0,0.6,0.3,0.6,0.6v23.2c0,0.3-0.3,0.6-0.6,0.6H0.6c-0.3,0-0.6-0.3-0.6-0.6
	V0.6z"/>
<path class="st1" d="M1.6,1.6v21.3h30.1V1.6H1.6z M0.6,0C0.3,0,0,0.3,0,0.6v23.2c0,0.3,0.3,0.6,0.6,0.6h31.9c0.3,0,0.6-0.3,0.6-0.6
	V0.6c0-0.3-0.3-0.6-0.6-0.6H0.6z"/>
<path class="st2" d="M4.4,7.5c0-0.3,0.2-0.5,0.5-0.5h10.4c0.3,0,0.5,0.2,0.5,0.5c0,0.3-0.2,0.5-0.5,0.5H4.9C4.6,8,4.4,7.8,4.4,7.5z"
	/>
<path class="st2" d="M4.4,11.5c0-0.3,0.2-0.5,0.5-0.5h15.7c0.3,0,0.5,0.2,0.5,0.5s-0.2,0.5-0.5,0.5H4.9C4.6,11.9,4.4,11.7,4.4,11.5z
	"/>
<path class="st2" d="M4.4,16.4c0-0.3,0.2-0.5,0.5-0.5h5.5c0.3,0,0.5,0.2,0.5,0.5s-0.2,0.5-0.5,0.5H4.9C4.6,16.8,4.4,16.6,4.4,16.4z"
	/>
<linearGradient id="SVGID_2_" gradientUnits="userSpaceOnUse" x1="7.9105" y1="13.6014" x2="19.8569" y2="18.3568" gradientTransform="matrix(1 0 0 -1 0 32)">
	<stop  offset="0" style="stop-color:#81C3FF"/>
	<stop  offset="1" style="stop-color:#CDE7FF"/>
</linearGradient>
<path class="st3" d="M12.1,9.8c0-0.4,0.3-0.8,0.8-0.8h5.5c0.4,0,0.8,0.3,0.8,0.8v11c0,0.4-0.3,0.8-0.8,0.8h-5.5
	c-0.4,0-0.8-0.3-0.8-0.8V9.8z"/>
<linearGradient id="SVGID_3_" gradientUnits="userSpaceOnUse" x1="18.7826" y1="13.6014" x2="30.729" y2="18.3568" gradientTransform="matrix(1 0 0 -1 0 32)">
	<stop  offset="0" style="stop-color:#81C3FF"/>
	<stop  offset="1" style="stop-color:#CDE7FF"/>
</linearGradient>
<path class="st4" d="M22.9,9.8c0-0.4,0.3-0.8,0.8-0.8h5.5c0.4,0,0.8,0.3,0.8,0.8v11c0,0.4-0.3,0.8-0.8,0.8h-5.5
	c-0.4,0-0.8-0.3-0.8-0.8V9.8z"/>
<path class="st2" d="M13.3,12.4c0-0.2,0.2-0.4,0.4-0.4h4.1c0.2,0,0.4,0.2,0.4,0.4c0,0.2-0.2,0.4-0.4,0.4h-4.1
	C13.4,12.8,13.3,12.6,13.3,12.4z"/>
<path class="st2" d="M13.3,15.3c0-0.2,0.2-0.4,0.4-0.4h4.1c0.2,0,0.4,0.2,0.4,0.4c0,0.2-0.2,0.4-0.4,0.4h-4.1
	C13.4,15.7,13.3,15.6,13.3,15.3z"/>
<path class="st2" d="M13.3,18.3c0-0.2,0.2-0.4,0.4-0.4h4.1c0.2,0,0.4,0.2,0.4,0.4c0,0.2-0.2,0.4-0.4,0.4h-4.1
	C13.4,18.7,13.3,18.5,13.3,18.3z"/>
<path class="st2" d="M24.1,12.4c0-0.2,0.2-0.4,0.4-0.4h4.1c0.2,0,0.4,0.2,0.4,0.4c0,0.2-0.2,0.4-0.4,0.4h-4.1
	C24.3,12.8,24.1,12.6,24.1,12.4z"/>
<path class="st2" d="M24.1,15.3c0-0.2,0.2-0.4,0.4-0.4h4.1c0.2,0,0.4,0.2,0.4,0.4c0,0.2-0.2,0.4-0.4,0.4h-4.1
	C24.3,15.7,24.1,15.6,24.1,15.3z"/>
<path class="st2" d="M24.1,18.3c0-0.2,0.2-0.4,0.4-0.4h4.1c0.2,0,0.4,0.2,0.4,0.4c0,0.2-0.2,0.4-0.4,0.4h-4.1
	C24.3,18.7,24.1,18.5,24.1,18.3z"/>
<path class="st2" d="M6.3,28.5c0-0.3,0.3-0.6,0.6-0.6h28.6c0.3,0,0.6,0.3,0.6,0.6c0,0.3-0.3,0.6-0.6,0.6H6.8
	C6.5,29,6.3,28.8,6.3,28.5z"/>
<path class="st2" d="M15.6,22.2c0.3,0,0.6,0.3,0.6,0.6V25c0,0.3-0.3,0.6-0.6,0.6c-0.3,0-0.6-0.3-0.6-0.6v-2.2
	C15,22.5,15.3,22.2,15.6,22.2z"/>
<path class="st2" d="M26.4,22.2c0.3,0,0.6,0.3,0.6,0.6V25c0,0.3-0.3,0.6-0.6,0.6s-0.6-0.3-0.6-0.6v-2.2
	C25.9,22.5,26.1,22.2,26.4,22.2z"/>
<linearGradient id="SVGID_4_" gradientUnits="userSpaceOnUse" x1="13.6289" y1="3.5384" x2="23.7723" y2="3.5384" gradientTransform="matrix(1 0 0 -1 0 32)">
	<stop  offset="0" style="stop-color:#9BCFFF"/>
	<stop  offset="1" style="stop-color:#0487FF"/>
</linearGradient>
<path class="st5" d="M17.9,28.5c0,1.2-1,2.2-2.1,2.2s-2.1-1-2.1-2.2c0-1.2,1-2.2,2.1-2.2S17.9,27.3,17.9,28.5z"/>
<linearGradient id="SVGID_5_" gradientUnits="userSpaceOnUse" x1="24.502" y1="3.5384" x2="34.6453" y2="3.5384" gradientTransform="matrix(1 0 0 -1 0 32)">
	<stop  offset="0" style="stop-color:#9BCFFF"/>
	<stop  offset="1" style="stop-color:#0487FF"/>
</linearGradient>
<path class="st6" d="M28.8,28.5c0,1.2-1,2.2-2.1,2.2c-1.2,0-2.1-1-2.1-2.2c0-1.2,1-2.2,2.1-2.2C27.8,26.3,28.8,27.3,28.8,28.5z"/>
</svg>
