<?xml version="1.0" encoding="utf-8"?>
<!-- Generator: Adobe Illustrator 25.2.3, SVG Export Plug-In . SVG Version: 6.00 Build 0)  -->
<svg version="1.1" id="Layer_1" xmlns="http://www.w3.org/2000/svg" xmlns:xlink="http://www.w3.org/1999/xlink" x="0px" y="0px"
	 viewBox="0 0 81 75" style="enable-background:new 0 0 81 75;" xml:space="preserve">
<style type="text/css">
	.st0{fill-rule:evenodd;clip-rule:evenodd;fill:url(#SVGID_1_);}
	.st1{fill:url(#SVGID_2_);}
	.st2{fill:url(#SVGID_3_);}
	.st3{fill:none;stroke:#0487FF;stroke-width:2;stroke-linecap:round;}
	.st4{fill:none;stroke:#0487FF;stroke-width:3;stroke-linecap:round;}
	.st5{fill:url(#SVGID_4_);}
	.st6{fill:url(#SVGID_5_);}
</style>
<linearGradient id="SVGID_1_" gradientUnits="userSpaceOnUse" x1="-492.8394" y1="566.587" x2="-491.8394" y2="566.587" gradientTransform="matrix(80.9993 0 0 -46 39919.6367 26086)">
	<stop  offset="0" style="stop-color:#B4DBFF"/>
	<stop  offset="1" style="stop-color:#0487FF"/>
</linearGradient>
<path class="st0" d="M42,1.1C44.2,0.4,46.6,0,49,0c12.3,0,22.3,10,22.3,22.3c0,0.5,0,1-0.1,1.5c5.6,0.7,9.8,5.4,9.8,11
	C81,41,76,46,69.9,46H9.8c-4.9,0-9-3.6-9.7-8.4c-0.8-5.3,3-10.3,8.3-11.1c-0.2-2.5,0.1-5,1.1-7.4c3.3-7.9,12.3-11.6,20.2-8.3
	C32.5,6.2,36.9,2.7,42,1V1.1z"/>
<linearGradient id="SVGID_2_" gradientUnits="userSpaceOnUse" x1="-470.7778" y1="562.3125" x2="-470.7778" y2="561.394" gradientTransform="matrix(18 0 0 -32 8500 18014)">
	<stop  offset="0" style="stop-color:#CDE7FF"/>
	<stop  offset="1" style="stop-color:#9BCFFF"/>
</linearGradient>
<path class="st1" d="M19,20h14c1.1,0,2,0.9,2,2v28c0,1.1-0.9,2-2,2H19c-1.1,0-2-0.9-2-2V22C17,20.9,17.9,20,19,20z"/>
<linearGradient id="SVGID_3_" gradientUnits="userSpaceOnUse" x1="-470.7778" y1="562.3125" x2="-470.7778" y2="561.394" gradientTransform="matrix(18 0 0 -32 8528 18014)">
	<stop  offset="0" style="stop-color:#CDE7FF"/>
	<stop  offset="1" style="stop-color:#9BCFFF"/>
</linearGradient>
<path class="st2" d="M47,20h14c1.1,0,2,0.9,2,2v28c0,1.1-0.9,2-2,2H47c-1.1,0-2-0.9-2-2V22C45,20.9,45.9,20,47,20z"/>
<path class="st3" d="M21,28.5h10.5 M21,36h10.5 M21,43.5h10.5 M49,28.5h10.5 M49,36h10.5 M49,43.5h10.5"/>
<path class="st4" d="M3.5,69.5h73.7 M26,55v5.7 M54,55v5.7"/>
<linearGradient id="SVGID_4_" gradientUnits="userSpaceOnUse" x1="-453.1364" y1="532.3636" x2="-453.1364" y2="531.4452" gradientTransform="matrix(11 0 0 -11 5011 5920)">
	<stop  offset="0" style="stop-color:#B4DBFF"/>
	<stop  offset="1" style="stop-color:#81C3FF"/>
</linearGradient>
<circle class="st5" cx="26.5" cy="69.5" r="5.5"/>
<linearGradient id="SVGID_5_" gradientUnits="userSpaceOnUse" x1="-453.1364" y1="532.3636" x2="-453.1364" y2="531.4452" gradientTransform="matrix(11 0 0 -11 5039 5920)">
	<stop  offset="0" style="stop-color:#B4DBFF"/>
	<stop  offset="1" style="stop-color:#81C3FF"/>
</linearGradient>
<circle class="st6" cx="54.5" cy="69.5" r="5.5"/>
</svg>
