<?xml version="1.0" encoding="utf-8"?>
<!-- Generator: Adobe Illustrator 25.2.3, SVG Export Plug-In . SVG Version: 6.00 Build 0)  -->
<svg version="1.1" id="Layer_1" xmlns="http://www.w3.org/2000/svg" xmlns:xlink="http://www.w3.org/1999/xlink" x="0px" y="0px"
	 viewBox="0 0 36 37" style="enable-background:new 0 0 36 37;" xml:space="preserve">
<style type="text/css">
	.st0{fill:url(#SVGID_1_);}
	.st1{fill:#68B7FF;}
	.st2{fill:url(#SVGID_2_);}
	.st3{fill:url(#SVGID_3_);}
	.st4{fill:url(#SVGID_4_);}
	.st5{fill:url(#SVGID_5_);}
	.st6{fill:url(#SVGID_6_);}
</style>
<linearGradient id="SVGID_1_" gradientUnits="userSpaceOnUse" x1="25.5816" y1="6.1446" x2="37.1372" y2="11.4763" gradientTransform="matrix(1 0 0 -1 0 38)">
	<stop  offset="0" style="stop-color:#CDE7FF"/>
	<stop  offset="1" style="stop-color:#68B7FF"/>
</linearGradient>
<path class="st0" d="M36,28.6c0-0.8-0.4-1.6-1.1-2l-4.7-3.3C30,23.1,29.6,23,29.2,23h-3.8l0.1,10.6c0,1.1,1.3,2.1,2.3,2.4H36V28.6z"
	/>
<path class="st1" d="M32.3,36h-4.3c-1.4,0-2.5-1.1-2.5-2.5V31h4.3L32.3,36z"/>
<linearGradient id="SVGID_2_" gradientUnits="userSpaceOnUse" x1="1.9215" y1="25.5607" x2="18.4984" y2="37.7684" gradientTransform="matrix(1 0 0 -1 0 38)">
	<stop  offset="0" style="stop-color:#CDE7FF"/>
	<stop  offset="1" style="stop-color:#9BCFFF"/>
</linearGradient>
<path class="st2" d="M16.1,4.3c-0.4,0-0.9,0.1-1.2,0.3V0H3.7C1.7,0,0,1.7,0,3.7v11.2h4.6c-0.7-1.6,0-3.4,1.6-4.1
	c1.6-0.7,3.4,0,4.1,1.6c0.3,0.8,0.3,1.7,0,2.5h4.6v-4.6c1.6,0.7,3.4,0,4.1-1.6c0.7-1.6,0-3.4-1.6-4.1C17,4.4,16.6,4.3,16.1,4.3z"/>
<linearGradient id="SVGID_3_" gradientUnits="userSpaceOnUse" x1="15.5788" y1="36.6244" x2="45.8614" y2="4.4104" gradientTransform="matrix(1 0 0 -1 0 38)">
	<stop  offset="0" style="stop-color:#9BCFFF"/>
	<stop  offset="0.5549" style="stop-color:#0487FF"/>
</linearGradient>
<path class="st3" d="M29.8,3.7c0-2.1-1.7-3.7-3.7-3.7H14.9v4.6c1.6-0.7,3.4,0,4.1,1.6c0.7,1.6,0,3.4-1.6,4.1c-0.8,0.3-1.7,0.3-2.5,0
	v4.6h4.6c-0.7,1.6,0,3.4,1.6,4.1c1.6,0.7,3.4,0,4.1-1.6c0.3-0.8,0.3-1.7,0-2.5h4.6V3.7z"/>
<linearGradient id="SVGID_4_" gradientUnits="userSpaceOnUse" x1="-1.6906" y1="20.5229" x2="19.7408" y2="12.5299" gradientTransform="matrix(1 0 0 -1 0 38)">
	<stop  offset="0" style="stop-color:#B4DBFF"/>
	<stop  offset="1" style="stop-color:#0487FF"/>
</linearGradient>
<path class="st4" d="M13.7,19.9c0.4,0,0.9,0.1,1.2,0.3v-5.2h-4.6c0.7-1.6,0-3.4-1.6-4.1c-1.6-0.7-3.4,0-4.1,1.6
	c-0.3,0.8-0.3,1.7,0,2.5H0v11.2c0,2.1,1.7,3.7,3.7,3.7h11.2v-4c-1.6,0.7-3.4,0-4.1-1.6c-0.7-1.6,0-3.4,1.6-4.1
	C12.8,20,13.2,19.9,13.7,19.9z"/>
<linearGradient id="SVGID_5_" gradientUnits="userSpaceOnUse" x1="20.4339" y1="-11.2373" x2="22.4716" y2="15.653" gradientTransform="matrix(1 0 0 -1 0 38)">
	<stop  offset="0.3583" style="stop-color:#0487FF"/>
	<stop  offset="1" style="stop-color:#81C3FF"/>
</linearGradient>
<path class="st5" d="M31.4,27.9l-3.9-10.5L23.2,19c1.2,1.2,1.2,3.2,0,4.4c-1.2,1.2-3.2,1.2-4.4,0c-0.6-0.6-0.9-1.5-0.9-2.3l-4.3,1.6
	l1.8,4.9c-0.4,0-0.9,0-1.3,0.2c-1.6,0.6-2.4,2.4-1.8,4c0.6,1.6,2.4,2.4,4,1.8c0.4-0.2,0.8-0.4,1.1-0.7l1.4,3.7l10.5-3.9
	C31.2,32,32.1,29.8,31.4,27.9z"/>
<linearGradient id="SVGID_6_" gradientUnits="userSpaceOnUse" x1="25.4334" y1="12.9922" x2="36.7448" y2="-2.5878" gradientTransform="matrix(1 0 0 -1 0 38)">
	<stop  offset="0" style="stop-color:#CDE7FF"/>
	<stop  offset="1" style="stop-color:#81C3FF"/>
</linearGradient>
<path class="st6" d="M28.6,27.9c-0.6-0.6-1.6-0.6-2.2,0s-0.6,1.6,0,2.2c0,0,0,0,0,0l2.2,2.2c0,2.1,1.7,3.7,3.7,3.7H36v-0.6
	L28.6,27.9z"/>
</svg>
