<?xml version="1.0" encoding="utf-8"?>
<!-- Generator: Adobe Illustrator 25.2.3, SVG Export Plug-In . SVG Version: 6.00 Build 0)  -->
<svg version="1.1" id="Layer_1" xmlns="http://www.w3.org/2000/svg" xmlns:xlink="http://www.w3.org/1999/xlink" x="0px" y="0px"
	 viewBox="0 0 103 103" style="enable-background:new 0 0 103 103;" xml:space="preserve">
<style type="text/css">
	.st0{fill:none;}
	.st1{fill:url(#SVGID_1_);}
	.st2{opacity:0.83;fill:url(#SVGID_2_);enable-background:new    ;}
	.st3{opacity:0.68;fill:url(#SVGID_3_);enable-background:new    ;}
	.st4{opacity:0.68;fill:url(#SVGID_4_);enable-background:new    ;}
	.st5{fill-rule:evenodd;clip-rule:evenodd;fill:#68B7FF;}
	.st6{fill-rule:evenodd;clip-rule:evenodd;fill:url(#SVGID_5_);}
	.st7{fill-rule:evenodd;clip-rule:evenodd;fill:#0487FF;}
</style>
<rect class="st0" width="102.1" height="102.1"/>
<linearGradient id="SVGID_1_" gradientUnits="userSpaceOnUse" x1="127.9976" y1="-93.8213" x2="3.3576" y2="143.9487" gradientTransform="matrix(1 0 0 -1 0 104)">
	<stop  offset="0" style="stop-color:#CDE7FF"/>
	<stop  offset="1" style="stop-color:#9BCFFF"/>
</linearGradient>
<path class="st1" d="M51.1,102.1c28.2,0,51.1-22.9,51.1-51.1S79.3,0,51.1,0S0,22.9,0,51.1S22.9,102.1,51.1,102.1z"/>
<linearGradient id="SVGID_2_" gradientUnits="userSpaceOnUse" x1="33.7729" y1="52.3739" x2="51.7329" y2="30.2239" gradientTransform="matrix(1 0 0 -1 0 104)">
	<stop  offset="0" style="stop-color:#CDE7FF"/>
	<stop  offset="1" style="stop-color:#68B7FF"/>
</linearGradient>
<path class="st2" d="M34.1,46l-6.3,9.6l18.7,18.7l9.6-6.3L34.1,46z"/>
<linearGradient id="SVGID_3_" gradientUnits="userSpaceOnUse" x1="39.84" y1="60.2302" x2="39.84" y2="80.5502" gradientTransform="matrix(1 0 0 -1 0 104)">
	<stop  offset="0" style="stop-color:#9BCFFF"/>
	<stop  offset="1" style="stop-color:#0487FF"/>
</linearGradient>
<path class="st3" d="M39,17.9L22.5,34.3l13.1,4.2L57.1,17L39,17.9z"/>
<linearGradient id="SVGID_4_" gradientUnits="userSpaceOnUse" x1="74.3554" y1="-390.584" x2="74.3554" y2="-1523.37" gradientTransform="matrix(1 0 0 -1 0 104)">
	<stop  offset="0" style="stop-color:#68B7FF"/>
	<stop  offset="1" style="stop-color:#0487FF"/>
</linearGradient>
<path class="st4" d="M67.8,79.6l16.4-16.4L85.1,45L63.6,66.5L67.8,79.6z"/>
<path class="st5" d="M25.4,57.9l4.8,4.8l-5.7,5.7l-4.8-4.8L25.4,57.9z"/>
<path class="st5" d="M38.5,82.5l-4.8-4.8l5.7-5.7l4.8,4.8L38.5,82.5z"/>
<path class="st5" d="M23.9,73.3l8.5-8.5l4.8,4.8L28.6,78L23.9,73.3z"/>
<linearGradient id="SVGID_5_" gradientUnits="userSpaceOnUse" x1="66.6616" y1="97.63" x2="66.6616" y2="33.0399" gradientTransform="matrix(1 0 0 -1 0 104)">
	<stop  offset="0" style="stop-color:#B4DBFF"/>
	<stop  offset="1" style="stop-color:#4FABFF"/>
</linearGradient>
<path class="st6" d="M75.8,14.4c-0.8,0.8-1.4,1.7-1.8,2.7c-0.4,1-0.6,2.1-0.6,3.2c0,1.1,0.2,2.2,0.6,3.2c0.4,1,1,2,1.8,2.7
	c0.8,0.8,1.7,1.4,2.7,1.8c1,0.4,2.1,0.6,3.2,0.6c1.1,0,2.2-0.2,3.2-0.6c1-0.4,2-1,2.7-1.8c0.8-0.8,1.4-1.7,1.8-2.7
	c0.4-1,0.6-2.1,0.6-3.2c0-1.1-0.2-2.2-0.6-3.2c-0.4-1-1-2-1.8-2.7c-1.6-1.6-3.7-2.5-6-2.5C79.6,11.9,77.4,12.8,75.8,14.4z M99.6,2.6
	L98.2,2c-5.6-2.1-11.8-2.6-17.6-1.3C74.6,1.9,69.3,4.9,65,9.1L31.2,43l14,14l14,14L93,37.1c4.2-4.3,7.2-9.6,8.4-15.5
	c1.3-5.9,0.8-12-1.3-17.6L99.6,2.6L99.6,2.6z"/>
<path class="st7" d="M75.8,26.3c-1.6-1.6-2.5-3.7-2.5-6c0-2.2,0.9-4.4,2.5-6c1.6-1.6,3.7-2.5,6-2.5c2.2,0,4.4,0.9,6,2.5L75.8,26.3z
	 M87.7,14.4c0.8,0.8,1.4,1.7,1.8,2.7c0.4,1,0.6,2.1,0.6,3.2c0,1.1-0.2,2.2-0.6,3.2c-0.4,1-1,2-1.8,2.7C87,27.1,86,27.7,85,28.1
	c-1,0.4-2.1,0.6-3.2,0.6c-1.1,0-2.2-0.2-3.2-0.6c-1-0.4-2-1-2.7-1.8L87.7,14.4z"/>
</svg>
