<?xml version="1.0" encoding="utf-8"?>
<!-- Generator: Adobe Illustrator 25.2.3, SVG Export Plug-In . SVG Version: 6.00 Build 0)  -->
<svg version="1.1" id="Layer_1" xmlns="http://www.w3.org/2000/svg" xmlns:xlink="http://www.w3.org/1999/xlink" x="0px" y="0px"
	 viewBox="0 0 110 112" style="enable-background:new 0 0 110 112;" xml:space="preserve">
<style type="text/css">
	.st0{fill:none;}
	.st1{fill-rule:evenodd;clip-rule:evenodd;fill:url(#SVGID_1_);}
	.st2{fill:url(#SVGID_2_);}
	.st3{fill:url(#SVGID_3_);}
	.st4{fill:#4FABFF;}
	.st5{fill:#68B7FF;}
</style>
<rect class="st0" width="110" height="111.6"/>
<linearGradient id="SVGID_1_" gradientUnits="userSpaceOnUse" x1="18.9477" y1="91.7074" x2="98.5849" y2="-7.615" gradientTransform="matrix(1 0 0 -1 0 114)">
	<stop  offset="0" style="stop-color:#9BCFFF"/>
	<stop  offset="0.8153" style="stop-color:#0487FF"/>
</linearGradient>
<path class="st1" d="M100.8,61.2c0,12.8-4.8,25.1-13.6,34.4c-8.7,9.3-20.6,15-33.4,15.9c-12.7,0.9-25.3-3.1-35.2-11.2
	c-9.9-8-16.4-19.5-18.2-32.2C0.2,65.8,0,63.5,0,61.2C0.2,47.9,5.6,35.3,15,26c9.4-9.3,22.1-14.5,35.4-14.5c13.2,0,26,5.2,35.4,14.5
	S100.6,47.9,100.8,61.2z"/>
<linearGradient id="SVGID_2_" gradientUnits="userSpaceOnUse" x1="38.2287" y1="16.9493" x2="100.9407" y2="133.1128" gradientTransform="matrix(1 0 0 -1 0 114)">
	<stop  offset="0" style="stop-color:#81C3FF"/>
	<stop  offset="1" style="stop-color:#E6F3FF"/>
</linearGradient>
<path class="st2" d="M107.1,57.4L78.3,76.5c-2.1,1.4-4.6,1.9-7,1.5c-2.4-0.4-4.9,0.1-7,1.5l-3.9,2.6L39,50.3l5.3-22.9
	c0.7-3.2,0.8-6.4,0.2-9.6c-0.6-3.2-1.8-6.2-3.6-8.9c-0.8-1.2-1.1-2.6-0.9-4c0.2-1.4,0.9-2.7,2-3.6c1.1-0.9,2.5-1.4,3.9-1.3
	c1.4,0.1,2.7,0.6,3.8,1.6L53,4.9c3.9,3.8,6.9,8.4,8.8,13.6l1.9,5l19.2-12.7c0.7-0.5,1.5-0.8,2.4-1c0.9-0.2,1.7-0.1,2.6,0
	s1.7,0.5,2.4,1c0.7,0.5,1.3,1.1,1.8,1.9c0.9,1.5,1.2,3.2,0.8,4.9c-0.4,1.7-1.4,3.1-2.8,4.1c0,0,0,0,0,0c0,0,0,0,0,0c0,0,0,0,0,0
	c0,0,0,0,0,0c1.4-0.5,2.9-0.6,4.3-0.1c1.4,0.5,2.6,1.4,3.5,2.6c0.5,0.7,0.8,1.5,1,2.3c0.2,0.8,0.2,1.7,0,2.5
	c-0.3,1.7-1.3,3.2-2.7,4.1c0,0,0,0.1,0,0.1c0,0,0,0.1,0,0.1c0,0,0.1,0,0.1,0c0,0,0.1,0,0.1,0c0.5-0.1,1-0.2,1.6-0.2
	c1.3,0,2.6,0.4,3.7,1.1c0.9,0.6,1.7,1.4,2.2,2.3c0.5,0.9,0.8,2,0.8,3.1c0,1.1-0.3,2.2-0.8,3.1c-0.5,1-1.3,1.8-2.2,2.4l-0.2,0.2
	c0,0,0,0,0,0.1c0,0,0,0,0,0.1c0,0,0,0,0.1,0c0,0,0,0,0.1,0c1.4-0.4,2.8-0.4,4.2,0.1c1.4,0.5,2.5,1.4,3.3,2.6
	c0.9,1.4,1.3,3.2,0.9,4.9c-0.3,1.7-1.3,3.2-2.8,4.1L107.1,57.4z"/>
<linearGradient id="SVGID_3_" gradientUnits="userSpaceOnUse" x1="31.3218" y1="66.9944" x2="31.3218" y2="4.969" gradientTransform="matrix(1 0 0 -1 0 114)">
	<stop  offset="0" style="stop-color:#B4DBFF"/>
	<stop  offset="1" style="stop-color:#4FABFF"/>
</linearGradient>
<path class="st3" d="M60.8,88.1l-12.1,8l-17.5,11.6C23,104.3,15.9,98.9,10.5,92C5.2,85,1.7,76.8,0.5,68.1l20.3-13.5l12.4-8.2
	c0.3-0.2,0.7-0.4,1.1-0.5c0.4-0.1,0.8-0.1,1.2,0c0.4,0.1,0.8,0.2,1.1,0.5c0.3,0.2,0.6,0.5,0.9,0.9l24.2,36.5
	c0.5,0.7,0.6,1.5,0.5,2.3C61.9,86.9,61.5,87.6,60.8,88.1z"/>
<path class="st4" d="M60.8,88.1l-12.1,8L20.8,54.6l12.4-8.2c0.3-0.2,0.7-0.4,1.1-0.5c0.4-0.1,0.8-0.1,1.2,0c0.4,0.1,0.8,0.2,1.1,0.5
	c0.3,0.2,0.6,0.5,0.9,0.9l24.2,36.5c0.5,0.7,0.6,1.5,0.5,2.3C61.9,86.9,61.5,87.6,60.8,88.1z"/>
<path class="st5" d="M95.9,22.5l-9.6,5.1c-0.7,0.4-1.4,0.5-2.2,0.3c-0.7-0.2-1.4-0.6-1.8-1.2l7.6-4.9c0,0,0,0,0,0c0,0,0,0,0,0
	c1-0.4,2-0.5,3-0.4C94.1,21.6,95.1,21.9,95.9,22.5L95.9,22.5z"/>
<path class="st5" d="M101.5,34.5l-9.4,5c-0.7,0.4-1.4,0.5-2.2,0.3c-0.7-0.2-1.4-0.6-1.8-1.2l7.5-4.9l0.3-0.1c0,0,0.1,0,0.1,0
	c0,0,0.1,0,0.1,0c0.5-0.1,1-0.2,1.6-0.2C99.1,33.4,100.4,33.8,101.5,34.5z"/>
<path class="st5" d="M107,46.5l-8.3,4.4c-0.7,0.4-1.4,0.5-2.2,0.3c-0.7-0.2-1.4-0.6-1.8-1.2l6.5-4.2c0,0,0,0,0.1,0c0,0,0,0,0.1,0
	c0.9-0.3,1.9-0.4,2.8-0.3C105.2,45.6,106.2,46,107,46.5L107,46.5z"/>
</svg>
