<?xml version="1.0" encoding="utf-8"?>
<!-- Generator: Adobe Illustrator 25.2.3, SVG Export Plug-In . SVG Version: 6.00 Build 0)  -->
<svg version="1.1" id="Layer_1" xmlns="http://www.w3.org/2000/svg" xmlns:xlink="http://www.w3.org/1999/xlink" x="0px" y="0px"
	 viewBox="0 0 36 34" style="enable-background:new 0 0 36 34;" xml:space="preserve">
<style type="text/css">
	.st0{fill:url(#SVGID_1_);}
	.st1{opacity:0.8257;fill:url(#SVGID_2_);enable-background:new    ;}
	.st2{fill-rule:evenodd;clip-rule:evenodd;fill:#FEFDFF;}
	.st3{fill-rule:evenodd;clip-rule:evenodd;fill:#0487FF;}
	.st4{opacity:0.3173;fill-rule:evenodd;clip-rule:evenodd;fill:#0487FF;enable-background:new    ;}
	.st5{fill:#0487FF;}
	.st6{fill:url(#SVGID_3_);}
	.st7{fill-rule:evenodd;clip-rule:evenodd;fill:url(#SVGID_4_);}
</style>
<linearGradient id="SVGID_1_" gradientUnits="userSpaceOnUse" x1="2.2133" y1="11.3774" x2="29.8146" y2="32.9835" gradientTransform="matrix(1 0 0 -1 0 36)">
	<stop  offset="0" style="stop-color:#68B7FF"/>
	<stop  offset="1" style="stop-color:#CDE7FF"/>
</linearGradient>
<path class="st0" d="M33,5.7H0c0,0,0,19.4,0,20.5c0,0,0,0,0,0c0,1,0.5,2,1.2,2.7C2,29.7,3,30.1,4,30.1h17.4c0.1,0,0.3-0.1,0.4-0.2
	l11.6-11.4c0.1-0.1,0.2-0.2,0.2-0.4V6.2C33.5,5.9,33.3,5.7,33,5.7z"/>
<linearGradient id="SVGID_2_" gradientUnits="userSpaceOnUse" x1="14.7758" y1="20.7731" x2="28.0281" y2="34.1631" gradientTransform="matrix(1 0 0 -1 0 36)">
	<stop  offset="0" style="stop-color:#E6F3FF"/>
	<stop  offset="1" style="stop-color:#68B7FF"/>
</linearGradient>
<path class="st1" d="M12.8,13.3L25,1.2l3.8,3.8L16.6,17.1L12.8,13.3z"/>
<path class="st2" d="M12.8,13.3l-1,4.8l4.8-1L12.8,13.3z"/>
<path class="st3" d="M11.8,18.1l0.4-1.8l1.5,1.4L11.8,18.1z"/>
<path class="st4" d="M16.6,17.1l-4.8,1L26.9,3l1.9,1.9L16.6,17.1z"/>
<path class="st5" d="M24.1,19.8H9.4c-0.3,0-0.5-0.2-0.5-0.5c0-0.3,0.2-0.5,0.5-0.5h14.6c0.3,0,0.5,0.2,0.5,0.5
	C24.6,19.6,24.4,19.8,24.1,19.8z"/>
<linearGradient id="SVGID_3_" gradientUnits="userSpaceOnUse" x1="-7.8274" y1="25.6809" x2="7.8817" y2="21.8131" gradientTransform="matrix(1 0 0 -1 0 36)">
	<stop  offset="0" style="stop-color:#B4DBFF"/>
	<stop  offset="1" style="stop-color:#0487FF"/>
</linearGradient>
<path class="st6" d="M4,22.1c0.2,0,0.5,0,0.7,0.1V0.5C4.7,0.2,4.4,0,4.2,0C1.9,0,0,1.8,0,4.1v21.4C0.3,23.6,2,22.1,4,22.1z"/>
<linearGradient id="SVGID_4_" gradientUnits="userSpaceOnUse" x1="19.9867" y1="18.3891" x2="34.1427" y2="3.199" gradientTransform="matrix(1 0 0 -1 0 36)">
	<stop  offset="0" style="stop-color:#E6F3FF"/>
	<stop  offset="1" style="stop-color:#0487FF"/>
</linearGradient>
<path class="st7" d="M35.1,15.3c0.2-0.1,0.4-0.2,0.6-0.1c0.2,0.1,0.3,0.3,0.3,0.5v17.8c0,0.3-0.2,0.5-0.5,0.5h-18
	c-0.2,0-0.4-0.1-0.5-0.3c-0.1-0.2,0-0.4,0.1-0.6L35.1,15.3z M31.7,24.1l-5.8,5.7h5.8V24.1z"/>
</svg>
